<mxfile host="app.diagrams.net" agent="Mozilla/5.0 (Macintosh; Intel Mac OS X 10_15_7) AppleWebKit/537.36 (KHTML, like Gecko) Chrome/129.0.0.0 Safari/537.36" version="24.7.17" pages="2">
  <diagram name="OLTP" id="pw2DA1CM0hwheiT9RxUd">
    <mxGraphModel grid="1" page="1" gridSize="10" guides="1" tooltips="1" connect="1" arrows="1" fold="1" pageScale="1" pageWidth="827" pageHeight="1169" math="0" shadow="0">
      <root>
        <mxCell id="0" />
        <mxCell id="1" parent="0" />
        <mxCell id="cLJOF_U78zOqiGeqpjYq-3" value="driver" style="swimlane;fontStyle=0;childLayout=stackLayout;horizontal=1;startSize=26;horizontalStack=0;resizeParent=1;resizeParentMax=0;resizeLast=0;collapsible=1;marginBottom=0;align=center;fontSize=14;fillColor=#dae8fc;strokeColor=#6c8ebf;" vertex="1" parent="1">
          <mxGeometry x="990" y="490" width="160" height="120" as="geometry" />
        </mxCell>
        <mxCell id="cLJOF_U78zOqiGeqpjYq-4" value="name: string&lt;div&gt;last_name: string&lt;/div&gt;&lt;div&gt;address: string&lt;/div&gt;&lt;div&gt;dni: string&lt;/div&gt;&lt;div&gt;license_number: string&lt;/div&gt;" style="text;strokeColor=none;fillColor=none;spacingLeft=4;spacingRight=4;overflow=hidden;rotatable=0;points=[[0,0.5],[1,0.5]];portConstraint=eastwest;fontSize=12;whiteSpace=wrap;html=1;" vertex="1" parent="cLJOF_U78zOqiGeqpjYq-3">
          <mxGeometry y="26" width="160" height="94" as="geometry" />
        </mxCell>
        <mxCell id="cLJOF_U78zOqiGeqpjYq-7" value="customer" style="swimlane;fontStyle=0;childLayout=stackLayout;horizontal=1;startSize=26;horizontalStack=0;resizeParent=1;resizeParentMax=0;resizeLast=0;collapsible=1;marginBottom=0;align=center;fontSize=14;fillColor=#dae8fc;strokeColor=#6c8ebf;" vertex="1" parent="1">
          <mxGeometry x="1350" y="135" width="160" height="130" as="geometry" />
        </mxCell>
        <mxCell id="cLJOF_U78zOqiGeqpjYq-8" value="name: string&lt;div&gt;last_name: string&lt;/div&gt;&lt;div&gt;address: string&lt;/div&gt;&lt;div&gt;dni: string&lt;/div&gt;&lt;div&gt;cellphone: string&lt;/div&gt;&lt;div&gt;birthdate: date&lt;/div&gt;" style="text;strokeColor=none;fillColor=none;spacingLeft=4;spacingRight=4;overflow=hidden;rotatable=0;points=[[0,0.5],[1,0.5]];portConstraint=eastwest;fontSize=12;whiteSpace=wrap;html=1;" vertex="1" parent="cLJOF_U78zOqiGeqpjYq-7">
          <mxGeometry y="26" width="160" height="104" as="geometry" />
        </mxCell>
        <mxCell id="cLJOF_U78zOqiGeqpjYq-9" value="bus" style="swimlane;fontStyle=0;childLayout=stackLayout;horizontal=1;startSize=26;horizontalStack=0;resizeParent=1;resizeParentMax=0;resizeLast=0;collapsible=1;marginBottom=0;align=center;fontSize=14;fillColor=#dae8fc;strokeColor=#6c8ebf;" vertex="1" parent="1">
          <mxGeometry x="580" y="50" width="160" height="170" as="geometry" />
        </mxCell>
        <mxCell id="cLJOF_U78zOqiGeqpjYq-10" value="model: string&lt;div&gt;license_plate: string&lt;/div&gt;&lt;div&gt;make: string&lt;/div&gt;&lt;div&gt;year_of_manufacture: int&lt;/div&gt;&lt;div&gt;capacity: int&lt;/div&gt;&lt;div&gt;fuel_type: string&lt;/div&gt;&lt;div&gt;current_mileage: float&lt;/div&gt;&lt;div&gt;status: string&lt;/div&gt;&lt;div&gt;gps_enabled: boolean&lt;/div&gt;&lt;div&gt;&lt;br&gt;&lt;/div&gt;" style="text;strokeColor=none;fillColor=none;spacingLeft=4;spacingRight=4;overflow=hidden;rotatable=0;points=[[0,0.5],[1,0.5]];portConstraint=eastwest;fontSize=12;whiteSpace=wrap;html=1;" vertex="1" parent="cLJOF_U78zOqiGeqpjYq-9">
          <mxGeometry y="26" width="160" height="144" as="geometry" />
        </mxCell>
        <mxCell id="cLJOF_U78zOqiGeqpjYq-11" value="extra_bus" style="swimlane;fontStyle=0;childLayout=stackLayout;horizontal=1;startSize=26;horizontalStack=0;resizeParent=1;resizeParentMax=0;resizeLast=0;collapsible=1;marginBottom=0;align=center;fontSize=14;fillColor=#dae8fc;strokeColor=#6c8ebf;" vertex="1" parent="1">
          <mxGeometry x="850" y="95" width="160" height="80" as="geometry" />
        </mxCell>
        <mxCell id="cLJOF_U78zOqiGeqpjYq-12" value="field: string&lt;div&gt;value: string&lt;br&gt;&lt;div&gt;bus_id&lt;/div&gt;&lt;/div&gt;" style="text;strokeColor=none;fillColor=none;spacingLeft=4;spacingRight=4;overflow=hidden;rotatable=0;points=[[0,0.5],[1,0.5]];portConstraint=eastwest;fontSize=12;whiteSpace=wrap;html=1;" vertex="1" parent="cLJOF_U78zOqiGeqpjYq-11">
          <mxGeometry y="26" width="160" height="54" as="geometry" />
        </mxCell>
        <mxCell id="cLJOF_U78zOqiGeqpjYq-14" value="bus_maintenance_header" style="swimlane;fontStyle=0;childLayout=stackLayout;horizontal=1;startSize=26;horizontalStack=0;resizeParent=1;resizeParentMax=0;resizeLast=0;collapsible=1;marginBottom=0;align=center;fontSize=14;fillColor=#dae8fc;strokeColor=#6c8ebf;" vertex="1" parent="1">
          <mxGeometry x="70" y="50" width="230" height="170" as="geometry" />
        </mxCell>
        <mxCell id="cLJOF_U78zOqiGeqpjYq-15" value="&lt;div&gt;maintenance_date: date&lt;/div&gt;&lt;div&gt;maintenance_type: string&lt;/div&gt;&lt;div&gt;cost: float&lt;/div&gt;&lt;div&gt;next_scheduled_maintenance: date&lt;/div&gt;&lt;div&gt;mileage_at_maintenance: float&lt;/div&gt;&lt;div&gt;repair_warranty: boolean&lt;/div&gt;&lt;div&gt;repair_duration: time&lt;/div&gt;&lt;div&gt;bus_id&lt;/div&gt;" style="text;strokeColor=none;fillColor=none;spacingLeft=4;spacingRight=4;overflow=hidden;rotatable=0;points=[[0,0.5],[1,0.5]];portConstraint=eastwest;fontSize=12;whiteSpace=wrap;html=1;" vertex="1" parent="cLJOF_U78zOqiGeqpjYq-14">
          <mxGeometry y="26" width="230" height="144" as="geometry" />
        </mxCell>
        <mxCell id="cLJOF_U78zOqiGeqpjYq-16" value="bus_maintenance_detail" style="swimlane;fontStyle=0;childLayout=stackLayout;horizontal=1;startSize=26;horizontalStack=0;resizeParent=1;resizeParentMax=0;resizeLast=0;collapsible=1;marginBottom=0;align=center;fontSize=14;fillColor=#dae8fc;strokeColor=#6c8ebf;" vertex="1" parent="1">
          <mxGeometry x="70" y="290" width="230" height="130" as="geometry" />
        </mxCell>
        <mxCell id="cLJOF_U78zOqiGeqpjYq-17" value="task_description: string&lt;div&gt;part_replaced: string&lt;/div&gt;&lt;div&gt;labor_hours: string&lt;/div&gt;&lt;div&gt;part_cost: float&lt;/div&gt;&lt;div&gt;task_cost: float&lt;/div&gt;&lt;div&gt;maitenance_id&lt;/div&gt;" style="text;strokeColor=none;fillColor=none;spacingLeft=4;spacingRight=4;overflow=hidden;rotatable=0;points=[[0,0.5],[1,0.5]];portConstraint=eastwest;fontSize=12;whiteSpace=wrap;html=1;" vertex="1" parent="cLJOF_U78zOqiGeqpjYq-16">
          <mxGeometry y="26" width="230" height="104" as="geometry" />
        </mxCell>
        <mxCell id="cLJOF_U78zOqiGeqpjYq-18" style="edgeStyle=orthogonalEdgeStyle;rounded=0;orthogonalLoop=1;jettySize=auto;html=1;endArrow=ERmandOne;endFill=0;" edge="1" parent="1" source="cLJOF_U78zOqiGeqpjYq-15" target="cLJOF_U78zOqiGeqpjYq-16">
          <mxGeometry relative="1" as="geometry" />
        </mxCell>
        <mxCell id="cLJOF_U78zOqiGeqpjYq-19" style="edgeStyle=orthogonalEdgeStyle;rounded=0;orthogonalLoop=1;jettySize=auto;html=1;endArrow=ERmandOne;endFill=0;" edge="1" parent="1" source="cLJOF_U78zOqiGeqpjYq-10" target="cLJOF_U78zOqiGeqpjYq-15">
          <mxGeometry relative="1" as="geometry" />
        </mxCell>
        <mxCell id="cLJOF_U78zOqiGeqpjYq-20" style="edgeStyle=orthogonalEdgeStyle;rounded=0;orthogonalLoop=1;jettySize=auto;html=1;endArrow=ERmandOne;endFill=0;" edge="1" parent="1" source="cLJOF_U78zOqiGeqpjYq-10" target="cLJOF_U78zOqiGeqpjYq-12">
          <mxGeometry relative="1" as="geometry" />
        </mxCell>
        <mxCell id="cLJOF_U78zOqiGeqpjYq-21" value="tourist_route" style="swimlane;fontStyle=0;childLayout=stackLayout;horizontal=1;startSize=26;horizontalStack=0;resizeParent=1;resizeParentMax=0;resizeLast=0;collapsible=1;marginBottom=0;align=center;fontSize=14;fillColor=#dae8fc;strokeColor=#6c8ebf;" vertex="1" parent="1">
          <mxGeometry x="360" y="260" width="160" height="200" as="geometry" />
        </mxCell>
        <mxCell id="cLJOF_U78zOqiGeqpjYq-22" value="&lt;div&gt;route_name: string&lt;/div&gt;&lt;div&gt;description: string&lt;/div&gt;&lt;div&gt;distance_km: float&lt;/div&gt;&lt;div&gt;duration_hours: float&lt;/div&gt;&lt;div&gt;difficulty_level: string&lt;/div&gt;&lt;div&gt;transport_mode: string&lt;/div&gt;&lt;div&gt;available_guides: boolean&lt;/div&gt;&lt;div&gt;languages_availables: text&lt;/div&gt;&lt;div&gt;route_type: string&lt;/div&gt;&lt;div&gt;start_location_id&lt;/div&gt;&lt;div&gt;end_location_id&lt;/div&gt;&lt;div&gt;&lt;br&gt;&lt;/div&gt;" style="text;strokeColor=none;fillColor=none;spacingLeft=4;spacingRight=4;overflow=hidden;rotatable=0;points=[[0,0.5],[1,0.5]];portConstraint=eastwest;fontSize=12;whiteSpace=wrap;html=1;" vertex="1" parent="cLJOF_U78zOqiGeqpjYq-21">
          <mxGeometry y="26" width="160" height="174" as="geometry" />
        </mxCell>
        <mxCell id="cLJOF_U78zOqiGeqpjYq-37" style="edgeStyle=orthogonalEdgeStyle;rounded=0;orthogonalLoop=1;jettySize=auto;html=1;" edge="1" parent="1" source="cLJOF_U78zOqiGeqpjYq-23" target="cLJOF_U78zOqiGeqpjYq-22">
          <mxGeometry relative="1" as="geometry" />
        </mxCell>
        <mxCell id="cLJOF_U78zOqiGeqpjYq-38" style="edgeStyle=orthogonalEdgeStyle;rounded=0;orthogonalLoop=1;jettySize=auto;html=1;" edge="1" parent="1" source="cLJOF_U78zOqiGeqpjYq-23" target="cLJOF_U78zOqiGeqpjYq-27">
          <mxGeometry relative="1" as="geometry">
            <Array as="points">
              <mxPoint x="540" y="583" />
            </Array>
          </mxGeometry>
        </mxCell>
        <mxCell id="cLJOF_U78zOqiGeqpjYq-23" value="location" style="swimlane;fontStyle=0;childLayout=stackLayout;horizontal=1;startSize=26;horizontalStack=0;resizeParent=1;resizeParentMax=0;resizeLast=0;collapsible=1;marginBottom=0;align=center;fontSize=14;fillColor=#dae8fc;strokeColor=#6c8ebf;" vertex="1" parent="1">
          <mxGeometry x="480" y="660" width="160" height="110" as="geometry" />
        </mxCell>
        <mxCell id="cLJOF_U78zOqiGeqpjYq-24" value="&lt;div&gt;lat: string&lt;/div&gt;&lt;div&gt;lng: string&lt;/div&gt;&lt;div&gt;place: string&lt;/div&gt;&lt;div&gt;photo_url: string&lt;/div&gt;&lt;div&gt;description: string&lt;/div&gt;" style="text;strokeColor=none;fillColor=none;spacingLeft=4;spacingRight=4;overflow=hidden;rotatable=0;points=[[0,0.5],[1,0.5]];portConstraint=eastwest;fontSize=12;whiteSpace=wrap;html=1;" vertex="1" parent="cLJOF_U78zOqiGeqpjYq-23">
          <mxGeometry y="26" width="160" height="84" as="geometry" />
        </mxCell>
        <mxCell id="cLJOF_U78zOqiGeqpjYq-26" value="route_stop" style="swimlane;fontStyle=0;childLayout=stackLayout;horizontal=1;startSize=26;horizontalStack=0;resizeParent=1;resizeParentMax=0;resizeLast=0;collapsible=1;marginBottom=0;align=center;fontSize=14;fillColor=#dae8fc;strokeColor=#6c8ebf;" vertex="1" parent="1">
          <mxGeometry x="220" y="510" width="200" height="120" as="geometry" />
        </mxCell>
        <mxCell id="cLJOF_U78zOqiGeqpjYq-27" value="&lt;div&gt;stop_name: string&lt;/div&gt;&lt;div&gt;stop_description: string&lt;/div&gt;&lt;div&gt;distance_km: float&lt;/div&gt;&lt;div&gt;duration_hours: float&lt;/div&gt;&lt;div&gt;estimated_arrival_time: datetime&lt;/div&gt;&lt;div&gt;location_id&lt;/div&gt;" style="text;strokeColor=none;fillColor=none;spacingLeft=4;spacingRight=4;overflow=hidden;rotatable=0;points=[[0,0.5],[1,0.5]];portConstraint=eastwest;fontSize=12;whiteSpace=wrap;html=1;" vertex="1" parent="cLJOF_U78zOqiGeqpjYq-26">
          <mxGeometry y="26" width="200" height="94" as="geometry" />
        </mxCell>
        <mxCell id="cLJOF_U78zOqiGeqpjYq-31" style="edgeStyle=orthogonalEdgeStyle;rounded=0;orthogonalLoop=1;jettySize=auto;html=1;" edge="1" parent="1" source="cLJOF_U78zOqiGeqpjYq-22" target="cLJOF_U78zOqiGeqpjYq-26">
          <mxGeometry relative="1" as="geometry" />
        </mxCell>
        <mxCell id="cLJOF_U78zOqiGeqpjYq-32" value="activities" style="swimlane;fontStyle=0;childLayout=stackLayout;horizontal=1;startSize=26;horizontalStack=0;resizeParent=1;resizeParentMax=0;resizeLast=0;collapsible=1;marginBottom=0;align=center;fontSize=14;fillColor=#dae8fc;strokeColor=#6c8ebf;" vertex="1" parent="1">
          <mxGeometry x="-20" y="630" width="160" height="70" as="geometry" />
        </mxCell>
        <mxCell id="cLJOF_U78zOqiGeqpjYq-33" value="name: string&lt;div&gt;description: string&lt;/div&gt;" style="text;strokeColor=none;fillColor=none;spacingLeft=4;spacingRight=4;overflow=hidden;rotatable=0;points=[[0,0.5],[1,0.5]];portConstraint=eastwest;fontSize=12;whiteSpace=wrap;html=1;" vertex="1" parent="cLJOF_U78zOqiGeqpjYq-32">
          <mxGeometry y="26" width="160" height="44" as="geometry" />
        </mxCell>
        <mxCell id="cLJOF_U78zOqiGeqpjYq-34" style="edgeStyle=orthogonalEdgeStyle;rounded=0;orthogonalLoop=1;jettySize=auto;html=1;entryX=0.394;entryY=0.029;entryDx=0;entryDy=0;entryPerimeter=0;" edge="1" parent="1" source="cLJOF_U78zOqiGeqpjYq-27" target="cLJOF_U78zOqiGeqpjYq-32">
          <mxGeometry relative="1" as="geometry">
            <Array as="points">
              <mxPoint x="120" y="583" />
              <mxPoint x="120" y="582" />
            </Array>
          </mxGeometry>
        </mxCell>
        <mxCell id="cLJOF_U78zOqiGeqpjYq-51" style="edgeStyle=orthogonalEdgeStyle;rounded=0;orthogonalLoop=1;jettySize=auto;html=1;entryX=0;entryY=0.5;entryDx=0;entryDy=0;" edge="1" parent="1" source="cLJOF_U78zOqiGeqpjYq-35" target="cLJOF_U78zOqiGeqpjYq-48">
          <mxGeometry relative="1" as="geometry">
            <Array as="points">
              <mxPoint x="760" y="213" />
            </Array>
          </mxGeometry>
        </mxCell>
        <mxCell id="cLJOF_U78zOqiGeqpjYq-35" value="daily_service" style="swimlane;fontStyle=0;childLayout=stackLayout;horizontal=1;startSize=26;horizontalStack=0;resizeParent=1;resizeParentMax=0;resizeLast=0;collapsible=1;marginBottom=0;align=center;fontSize=14;fillColor=#dae8fc;strokeColor=#6c8ebf;" vertex="1" parent="1">
          <mxGeometry x="640" y="260" width="160" height="180" as="geometry" />
        </mxCell>
        <mxCell id="cLJOF_U78zOqiGeqpjYq-36" value="start_time: datetime&lt;div&gt;end_time: datetime&lt;/div&gt;&lt;div&gt;seasonality: string&lt;/div&gt;&lt;div&gt;price_per_person: float&lt;/div&gt;&lt;div&gt;max_group_size: int&lt;/div&gt;&lt;div&gt;min_group_size: int&lt;/div&gt;&lt;div&gt;children: boolean&lt;/div&gt;&lt;div&gt;tourist_route_id&lt;/div&gt;&lt;div&gt;service_type: string&lt;/div&gt;" style="text;strokeColor=none;fillColor=none;spacingLeft=4;spacingRight=4;overflow=hidden;rotatable=0;points=[[0,0.5],[1,0.5]];portConstraint=eastwest;fontSize=12;whiteSpace=wrap;html=1;" vertex="1" parent="cLJOF_U78zOqiGeqpjYq-35">
          <mxGeometry y="26" width="160" height="154" as="geometry" />
        </mxCell>
        <mxCell id="cLJOF_U78zOqiGeqpjYq-39" style="edgeStyle=orthogonalEdgeStyle;rounded=0;orthogonalLoop=1;jettySize=auto;html=1;entryX=0;entryY=0.048;entryDx=0;entryDy=0;entryPerimeter=0;" edge="1" parent="1" source="cLJOF_U78zOqiGeqpjYq-22" target="cLJOF_U78zOqiGeqpjYq-36">
          <mxGeometry relative="1" as="geometry">
            <Array as="points">
              <mxPoint x="580" y="350" />
              <mxPoint x="580" y="293" />
            </Array>
          </mxGeometry>
        </mxCell>
        <mxCell id="cLJOF_U78zOqiGeqpjYq-40" value="tourist_route_transport" style="swimlane;fontStyle=0;childLayout=stackLayout;horizontal=1;startSize=26;horizontalStack=0;resizeParent=1;resizeParentMax=0;resizeLast=0;collapsible=1;marginBottom=0;align=center;fontSize=14;fillColor=#dae8fc;strokeColor=#6c8ebf;" vertex="1" parent="1">
          <mxGeometry x="970" y="240" width="160" height="90" as="geometry" />
        </mxCell>
        <mxCell id="cLJOF_U78zOqiGeqpjYq-41" value="bus_id:&lt;div&gt;driver_id:&lt;/div&gt;&lt;div&gt;daily_service_id:&lt;/div&gt;" style="text;strokeColor=none;fillColor=none;spacingLeft=4;spacingRight=4;overflow=hidden;rotatable=0;points=[[0,0.5],[1,0.5]];portConstraint=eastwest;fontSize=12;whiteSpace=wrap;html=1;" vertex="1" parent="cLJOF_U78zOqiGeqpjYq-40">
          <mxGeometry y="26" width="160" height="64" as="geometry" />
        </mxCell>
        <mxCell id="cLJOF_U78zOqiGeqpjYq-42" style="edgeStyle=orthogonalEdgeStyle;rounded=0;orthogonalLoop=1;jettySize=auto;html=1;entryX=0.013;entryY=0.203;entryDx=0;entryDy=0;entryPerimeter=0;" edge="1" parent="1" source="cLJOF_U78zOqiGeqpjYq-36" target="cLJOF_U78zOqiGeqpjYq-41">
          <mxGeometry relative="1" as="geometry">
            <Array as="points">
              <mxPoint x="885" y="330" />
              <mxPoint x="885" y="279" />
            </Array>
          </mxGeometry>
        </mxCell>
        <mxCell id="cLJOF_U78zOqiGeqpjYq-43" style="edgeStyle=orthogonalEdgeStyle;rounded=0;orthogonalLoop=1;jettySize=auto;html=1;" edge="1" parent="1" source="cLJOF_U78zOqiGeqpjYq-3">
          <mxGeometry relative="1" as="geometry">
            <mxPoint x="1070" y="330" as="targetPoint" />
            <Array as="points">
              <mxPoint x="1070" y="331" />
            </Array>
          </mxGeometry>
        </mxCell>
        <mxCell id="cLJOF_U78zOqiGeqpjYq-44" value="tourist_operation_costs" style="swimlane;fontStyle=0;childLayout=stackLayout;horizontal=1;startSize=26;horizontalStack=0;resizeParent=1;resizeParentMax=0;resizeLast=0;collapsible=1;marginBottom=0;align=center;fontSize=14;fillColor=#dae8fc;strokeColor=#6c8ebf;" vertex="1" parent="1">
          <mxGeometry x="660" y="480" width="160" height="180" as="geometry" />
        </mxCell>
        <mxCell id="cLJOF_U78zOqiGeqpjYq-45" value="cost_type: string&lt;div&gt;description: string&lt;/div&gt;&lt;div&gt;amount: float&lt;/div&gt;&lt;div&gt;currency: string&lt;/div&gt;&lt;div&gt;date_incurred: datetime&lt;/div&gt;&lt;div&gt;supplier: string&lt;/div&gt;&lt;div&gt;payment_method: string&lt;/div&gt;&lt;div&gt;invoice_number: string&lt;/div&gt;&lt;div&gt;notes: text&lt;/div&gt;&lt;div&gt;payment_status: string&lt;/div&gt;" style="text;strokeColor=none;fillColor=none;spacingLeft=4;spacingRight=4;overflow=hidden;rotatable=0;points=[[0,0.5],[1,0.5]];portConstraint=eastwest;fontSize=12;whiteSpace=wrap;html=1;" vertex="1" parent="cLJOF_U78zOqiGeqpjYq-44">
          <mxGeometry y="26" width="160" height="154" as="geometry" />
        </mxCell>
        <mxCell id="cLJOF_U78zOqiGeqpjYq-46" style="edgeStyle=orthogonalEdgeStyle;rounded=0;orthogonalLoop=1;jettySize=auto;html=1;entryX=0.5;entryY=0;entryDx=0;entryDy=0;" edge="1" parent="1" source="cLJOF_U78zOqiGeqpjYq-36" target="cLJOF_U78zOqiGeqpjYq-44">
          <mxGeometry relative="1" as="geometry" />
        </mxCell>
        <mxCell id="cLJOF_U78zOqiGeqpjYq-47" value="booking" style="swimlane;fontStyle=0;childLayout=stackLayout;horizontal=1;startSize=26;horizontalStack=0;resizeParent=1;resizeParentMax=0;resizeLast=0;collapsible=1;marginBottom=0;align=center;fontSize=14;fillColor=#dae8fc;strokeColor=#6c8ebf;" vertex="1" parent="1">
          <mxGeometry x="1140" y="110" width="160" height="180" as="geometry" />
        </mxCell>
        <mxCell id="cLJOF_U78zOqiGeqpjYq-48" value="booking_date: datetime&lt;div&gt;price: float&lt;/div&gt;&lt;div&gt;currency: string&lt;/div&gt;&lt;div&gt;payment_status: string&lt;/div&gt;&lt;div&gt;special_requests: string&lt;/div&gt;&lt;div&gt;booking_status: string&lt;/div&gt;&lt;div&gt;booking_number: string&lt;/div&gt;&lt;div&gt;number_of_people: int&lt;/div&gt;&lt;div&gt;customer_id:&lt;/div&gt;&lt;div&gt;daily_service_id:&lt;/div&gt;" style="text;strokeColor=none;fillColor=none;spacingLeft=4;spacingRight=4;overflow=hidden;rotatable=0;points=[[0,0.5],[1,0.5]];portConstraint=eastwest;fontSize=12;whiteSpace=wrap;html=1;" vertex="1" parent="cLJOF_U78zOqiGeqpjYq-47">
          <mxGeometry y="26" width="160" height="154" as="geometry" />
        </mxCell>
        <mxCell id="cLJOF_U78zOqiGeqpjYq-50" style="edgeStyle=orthogonalEdgeStyle;rounded=0;orthogonalLoop=1;jettySize=auto;html=1;" edge="1" parent="1" source="cLJOF_U78zOqiGeqpjYq-8" target="cLJOF_U78zOqiGeqpjYq-48">
          <mxGeometry relative="1" as="geometry" />
        </mxCell>
        <mxCell id="cLJOF_U78zOqiGeqpjYq-52" value="extra_services" style="swimlane;fontStyle=0;childLayout=stackLayout;horizontal=1;startSize=26;horizontalStack=0;resizeParent=1;resizeParentMax=0;resizeLast=0;collapsible=1;marginBottom=0;align=center;fontSize=14;fillColor=#dae8fc;strokeColor=#6c8ebf;" vertex="1" parent="1">
          <mxGeometry x="860" y="370" width="160" height="80" as="geometry" />
        </mxCell>
        <mxCell id="cLJOF_U78zOqiGeqpjYq-53" value="&lt;div&gt;name: string&lt;/div&gt;&lt;div&gt;&lt;div&gt;description: string&lt;/div&gt;&lt;/div&gt;&lt;div&gt;daily_service_id:&lt;/div&gt;" style="text;strokeColor=none;fillColor=none;spacingLeft=4;spacingRight=4;overflow=hidden;rotatable=0;points=[[0,0.5],[1,0.5]];portConstraint=eastwest;fontSize=12;whiteSpace=wrap;html=1;" vertex="1" parent="cLJOF_U78zOqiGeqpjYq-52">
          <mxGeometry y="26" width="160" height="54" as="geometry" />
        </mxCell>
        <mxCell id="cLJOF_U78zOqiGeqpjYq-54" style="edgeStyle=orthogonalEdgeStyle;rounded=0;orthogonalLoop=1;jettySize=auto;html=1;entryX=0.075;entryY=0.056;entryDx=0;entryDy=0;entryPerimeter=0;" edge="1" parent="1" source="cLJOF_U78zOqiGeqpjYq-36" target="cLJOF_U78zOqiGeqpjYq-53">
          <mxGeometry relative="1" as="geometry">
            <Array as="points">
              <mxPoint x="830" y="350" />
              <mxPoint x="830" y="399" />
            </Array>
          </mxGeometry>
        </mxCell>
        <mxCell id="cLJOF_U78zOqiGeqpjYq-55" value="guides" style="swimlane;fontStyle=0;childLayout=stackLayout;horizontal=1;startSize=26;horizontalStack=0;resizeParent=1;resizeParentMax=0;resizeLast=0;collapsible=1;marginBottom=0;align=center;fontSize=14;fillColor=#dae8fc;strokeColor=#6c8ebf;" vertex="1" parent="1">
          <mxGeometry x="340" y="-240" width="160" height="120" as="geometry" />
        </mxCell>
        <mxCell id="cLJOF_U78zOqiGeqpjYq-56" value="name: string&lt;div&gt;last_name: string&lt;/div&gt;&lt;div&gt;website: string&lt;/div&gt;&lt;div&gt;description: string&lt;/div&gt;&lt;div&gt;languages: string&lt;/div&gt;" style="text;strokeColor=none;fillColor=none;spacingLeft=4;spacingRight=4;overflow=hidden;rotatable=0;points=[[0,0.5],[1,0.5]];portConstraint=eastwest;fontSize=12;whiteSpace=wrap;html=1;" vertex="1" parent="cLJOF_U78zOqiGeqpjYq-55">
          <mxGeometry y="26" width="160" height="94" as="geometry" />
        </mxCell>
        <mxCell id="cLJOF_U78zOqiGeqpjYq-57" value="guides_tourists" style="swimlane;fontStyle=0;childLayout=stackLayout;horizontal=1;startSize=26;horizontalStack=0;resizeParent=1;resizeParentMax=0;resizeLast=0;collapsible=1;marginBottom=0;align=center;fontSize=14;fillColor=#dae8fc;strokeColor=#6c8ebf;" vertex="1" parent="1">
          <mxGeometry x="360" y="30" width="160" height="96" as="geometry" />
        </mxCell>
        <mxCell id="cLJOF_U78zOqiGeqpjYq-58" value="name: string&lt;div&gt;last_name: string&lt;/div&gt;&lt;div&gt;website: string&lt;/div&gt;&lt;div&gt;description: string&lt;/div&gt;" style="text;strokeColor=none;fillColor=none;spacingLeft=4;spacingRight=4;overflow=hidden;rotatable=0;points=[[0,0.5],[1,0.5]];portConstraint=eastwest;fontSize=12;whiteSpace=wrap;html=1;" vertex="1" parent="cLJOF_U78zOqiGeqpjYq-57">
          <mxGeometry y="26" width="160" height="70" as="geometry" />
        </mxCell>
        <mxCell id="cLJOF_U78zOqiGeqpjYq-59" style="edgeStyle=orthogonalEdgeStyle;rounded=0;orthogonalLoop=1;jettySize=auto;html=1;entryX=0.5;entryY=0;entryDx=0;entryDy=0;" edge="1" parent="1" source="cLJOF_U78zOqiGeqpjYq-56" target="cLJOF_U78zOqiGeqpjYq-57">
          <mxGeometry relative="1" as="geometry" />
        </mxCell>
        <mxCell id="cLJOF_U78zOqiGeqpjYq-60" style="edgeStyle=orthogonalEdgeStyle;rounded=0;orthogonalLoop=1;jettySize=auto;html=1;entryX=0.506;entryY=1.014;entryDx=0;entryDy=0;entryPerimeter=0;" edge="1" parent="1" source="cLJOF_U78zOqiGeqpjYq-21" target="cLJOF_U78zOqiGeqpjYq-58">
          <mxGeometry relative="1" as="geometry" />
        </mxCell>
      </root>
    </mxGraphModel>
  </diagram>
  <diagram id="9Vm94uNkUkTsXMNZ10e5" name="DW">
    <mxGraphModel dx="1024" dy="2923" grid="1" gridSize="10" guides="1" tooltips="1" connect="1" arrows="1" fold="1" page="1" pageScale="1" pageWidth="827" pageHeight="1169" math="0" shadow="0">
      <root>
        <mxCell id="0" />
        <mxCell id="1" parent="0" />
        <mxCell id="O-2L4KxatOeJdAkyZx8x-3" value="DimCustomer" style="swimlane;fontStyle=0;childLayout=stackLayout;horizontal=1;startSize=26;horizontalStack=0;resizeParent=1;resizeParentMax=0;resizeLast=0;collapsible=1;marginBottom=0;align=center;fontSize=14;fillColor=#f8cecc;strokeColor=#b85450;" parent="1" vertex="1">
          <mxGeometry x="1150" y="-270" width="160" height="160" as="geometry" />
        </mxCell>
        <mxCell id="O-2L4KxatOeJdAkyZx8x-4" value="customer_sk: pk&lt;div&gt;customer_id: int&lt;/div&gt;&lt;div&gt;name: string&lt;/div&gt;&lt;div&gt;last_name: string&lt;/div&gt;&lt;div&gt;address: string&lt;/div&gt;&lt;div&gt;dni: string&lt;/div&gt;&lt;div&gt;cellphone: string&lt;/div&gt;&lt;div&gt;birthdate: string&lt;/div&gt;" style="text;strokeColor=none;fillColor=none;spacingLeft=4;spacingRight=4;overflow=hidden;rotatable=0;points=[[0,0.5],[1,0.5]];portConstraint=eastwest;fontSize=12;whiteSpace=wrap;html=1;" parent="O-2L4KxatOeJdAkyZx8x-3" vertex="1">
          <mxGeometry y="26" width="160" height="134" as="geometry" />
        </mxCell>
        <mxCell id="O-2L4KxatOeJdAkyZx8x-51" value="DimDate" style="swimlane;fontStyle=0;childLayout=stackLayout;horizontal=1;startSize=26;horizontalStack=0;resizeParent=1;resizeParentMax=0;resizeLast=0;collapsible=1;marginBottom=0;align=center;fontSize=14;fillColor=#f8cecc;strokeColor=#b85450;" parent="1" vertex="1">
          <mxGeometry x="1081" y="-520" width="190" height="210" as="geometry" />
        </mxCell>
        <mxCell id="O-2L4KxatOeJdAkyZx8x-52" value="DateKey: pk&lt;div&gt;FullDate: date&lt;/div&gt;&lt;div&gt;DayNumberOfWeek: tinyint&lt;/div&gt;&lt;div&gt;DayNameOfWeek: string&lt;/div&gt;&lt;div&gt;DayNumberOfMonth:&amp;nbsp;&lt;span style=&quot;background-color: initial;&quot;&gt;tinyint&lt;/span&gt;&lt;/div&gt;&lt;div&gt;DayNumberOfYear: int&lt;/div&gt;&lt;div&gt;WeekNumberOfYear:&amp;nbsp;&lt;span style=&quot;background-color: initial;&quot;&gt;tinyint&lt;/span&gt;&lt;/div&gt;&lt;div&gt;MonthName: string&lt;/div&gt;&lt;div&gt;MonthNumberOfYear:&amp;nbsp;&lt;span style=&quot;background-color: initial;&quot;&gt;tinyint&lt;/span&gt;&lt;/div&gt;&lt;div&gt;CalendarQuarter:&amp;nbsp;&lt;span style=&quot;background-color: initial;&quot;&gt;tinyint&lt;/span&gt;&lt;/div&gt;&lt;div&gt;CalendarYear: int&lt;/div&gt;&lt;div&gt;CalendarSemester:&amp;nbsp;&lt;span style=&quot;background-color: initial;&quot;&gt;tinyint&lt;/span&gt;&lt;/div&gt;" style="text;strokeColor=none;fillColor=none;spacingLeft=4;spacingRight=4;overflow=hidden;rotatable=0;points=[[0,0.5],[1,0.5]];portConstraint=eastwest;fontSize=12;whiteSpace=wrap;html=1;" parent="O-2L4KxatOeJdAkyZx8x-51" vertex="1">
          <mxGeometry y="26" width="190" height="184" as="geometry" />
        </mxCell>
        <mxCell id="O-2L4KxatOeJdAkyZx8x-57" value="DimDailyService" style="swimlane;fontStyle=0;childLayout=stackLayout;horizontal=1;startSize=26;horizontalStack=0;resizeParent=1;resizeParentMax=0;resizeLast=0;collapsible=1;marginBottom=0;align=center;fontSize=14;fillColor=#f8cecc;strokeColor=#b85450;" parent="1" vertex="1">
          <mxGeometry x="640" y="-900" width="220" height="430" as="geometry" />
        </mxCell>
        <mxCell id="O-2L4KxatOeJdAkyZx8x-58" value="service_sk: pk&lt;div&gt;service_id: int&lt;/div&gt;&lt;div&gt;start_time: datetime&lt;div&gt;end_time: datetime&lt;/div&gt;&lt;div&gt;seasonality: string&lt;/div&gt;&lt;div&gt;price_per_person: float&lt;/div&gt;&lt;div&gt;max_group_size: int&lt;/div&gt;&lt;div&gt;min_group_size: int&lt;/div&gt;&lt;div&gt;children: boolean&lt;/div&gt;&lt;div&gt;service_type: string&lt;/div&gt;&lt;/div&gt;&lt;div&gt;&lt;div&gt;route_name: string&lt;/div&gt;&lt;div&gt;description: string&lt;/div&gt;&lt;div&gt;distance_km: float&lt;/div&gt;&lt;div&gt;duration_hours: float&lt;/div&gt;&lt;div&gt;difficulty_level: string&lt;/div&gt;&lt;div&gt;transport_mode: string&lt;/div&gt;&lt;div&gt;available_guides: boolean&lt;/div&gt;&lt;div&gt;languages_availables: text&lt;/div&gt;&lt;div&gt;route_type: string&lt;/div&gt;&lt;div&gt;orig_lat: decimal&lt;/div&gt;&lt;div&gt;orig_lng: decimal&lt;/div&gt;&lt;div&gt;orig_place: string&lt;/div&gt;&lt;div&gt;orig_description: string&lt;/div&gt;&lt;div&gt;&lt;div&gt;dest_lat: decimal&lt;/div&gt;&lt;div&gt;dest_lng: decimal&lt;/div&gt;&lt;div&gt;dest_place: string&lt;/div&gt;&lt;div&gt;dest_description: string&lt;/div&gt;&lt;div&gt;&lt;br&gt;&lt;/div&gt;&lt;/div&gt;&lt;div&gt;&lt;br&gt;&lt;/div&gt;&lt;/div&gt;" style="text;strokeColor=none;fillColor=none;spacingLeft=4;spacingRight=4;overflow=hidden;rotatable=0;points=[[0,0.5],[1,0.5]];portConstraint=eastwest;fontSize=12;whiteSpace=wrap;html=1;" parent="O-2L4KxatOeJdAkyZx8x-57" vertex="1">
          <mxGeometry y="26" width="220" height="404" as="geometry" />
        </mxCell>
        <mxCell id="O-2L4KxatOeJdAkyZx8x-61" value="FactBooking" style="swimlane;fontStyle=0;childLayout=stackLayout;horizontal=1;startSize=26;horizontalStack=0;resizeParent=1;resizeParentMax=0;resizeLast=0;collapsible=1;marginBottom=0;align=center;fontSize=14;fillColor=#f8cecc;strokeColor=#b85450;" parent="1" vertex="1">
          <mxGeometry x="780" y="-400" width="160" height="190" as="geometry" />
        </mxCell>
        <mxCell id="O-2L4KxatOeJdAkyZx8x-62" value="date_id: int&lt;div&gt;customer_id: int&lt;/div&gt;&lt;div&gt;booking_status: int&lt;/div&gt;&lt;div&gt;payment_status: int&lt;/div&gt;&lt;div&gt;daily_service_id: int&lt;/div&gt;&lt;div&gt;&lt;div&gt;price: float&lt;/div&gt;&lt;div&gt;currency: string&lt;/div&gt;&lt;div&gt;&lt;span style=&quot;background-color: initial;&quot;&gt;special_requests: string&lt;/span&gt;&lt;/div&gt;&lt;div&gt;booking_number: string&lt;/div&gt;&lt;div&gt;number_of_people: int&lt;/div&gt;&lt;/div&gt;" style="text;strokeColor=none;fillColor=none;spacingLeft=4;spacingRight=4;overflow=hidden;rotatable=0;points=[[0,0.5],[1,0.5]];portConstraint=eastwest;fontSize=12;whiteSpace=wrap;html=1;" parent="O-2L4KxatOeJdAkyZx8x-61" vertex="1">
          <mxGeometry y="26" width="160" height="164" as="geometry" />
        </mxCell>
        <mxCell id="FmJ5r7O6Pe5S9-oqRUou-5" value="FactActivity" style="swimlane;fontStyle=0;childLayout=stackLayout;horizontal=1;startSize=26;horizontalStack=0;resizeParent=1;resizeParentMax=0;resizeLast=0;collapsible=1;marginBottom=0;align=center;fontSize=14;fillColor=#dae8fc;strokeColor=#6c8ebf;" parent="1" vertex="1">
          <mxGeometry x="1081" y="-900" width="210" height="210" as="geometry" />
        </mxCell>
        <mxCell id="FmJ5r7O6Pe5S9-oqRUou-6" value="route_stop_sk: pk&lt;br&gt;&lt;div&gt;&lt;span style=&quot;background-color: initial;&quot;&gt;route_stop_id&lt;/span&gt;: int&lt;/div&gt;&lt;div&gt;&lt;div&gt;stop_name: string&lt;/div&gt;&lt;div&gt;stop_description: string&lt;/div&gt;&lt;div&gt;distance_km: float&lt;/div&gt;&lt;div&gt;duration_hours: float&lt;/div&gt;&lt;div&gt;estimated_arrival_time: datetime&lt;/div&gt;&lt;div&gt;lat: decimal&lt;/div&gt;&lt;/div&gt;&lt;div&gt;lng: decimal&lt;/div&gt;&lt;div&gt;description_location: string&lt;/div&gt;&lt;div&gt;place_location: string&lt;/div&gt;&lt;div&gt;route_service_id: int&lt;/div&gt;" style="text;strokeColor=none;fillColor=none;spacingLeft=4;spacingRight=4;overflow=hidden;rotatable=0;points=[[0,0.5],[1,0.5]];portConstraint=eastwest;fontSize=12;whiteSpace=wrap;html=1;" parent="FmJ5r7O6Pe5S9-oqRUou-5" vertex="1">
          <mxGeometry y="26" width="210" height="184" as="geometry" />
        </mxCell>
        <mxCell id="FmJ5r7O6Pe5S9-oqRUou-11" value="FactOperationCost" style="swimlane;fontStyle=0;childLayout=stackLayout;horizontal=1;startSize=26;horizontalStack=0;resizeParent=1;resizeParentMax=0;resizeLast=0;collapsible=1;marginBottom=0;align=center;fontSize=14;fillColor=#dae8fc;strokeColor=#6c8ebf;" parent="1" vertex="1">
          <mxGeometry x="770" y="-1220" width="160" height="240" as="geometry" />
        </mxCell>
        <mxCell id="FmJ5r7O6Pe5S9-oqRUou-12" value="cost_type: string&lt;div&gt;description: string&lt;/div&gt;&lt;div&gt;amount: float&lt;/div&gt;&lt;div&gt;currency: string&lt;/div&gt;&lt;div&gt;date_incurred: datetime&lt;/div&gt;&lt;div&gt;supplier: string&lt;/div&gt;&lt;div&gt;payment_method: string&lt;/div&gt;&lt;div&gt;invoice_number: string&lt;/div&gt;&lt;div&gt;notes: text&lt;/div&gt;&lt;div&gt;payment_status: string&lt;/div&gt;&lt;div&gt;route_service_id: int&lt;br&gt;&lt;/div&gt;&lt;div&gt;bus_id: int&lt;/div&gt;&lt;div&gt;driver_id: int&lt;/div&gt;&lt;div&gt;guide_id: int&lt;/div&gt;" style="text;strokeColor=none;fillColor=none;spacingLeft=4;spacingRight=4;overflow=hidden;rotatable=0;points=[[0,0.5],[1,0.5]];portConstraint=eastwest;fontSize=12;whiteSpace=wrap;html=1;" parent="FmJ5r7O6Pe5S9-oqRUou-11" vertex="1">
          <mxGeometry y="26" width="160" height="214" as="geometry" />
        </mxCell>
        <mxCell id="FmJ5r7O6Pe5S9-oqRUou-13" style="edgeStyle=orthogonalEdgeStyle;rounded=0;orthogonalLoop=1;jettySize=auto;html=1;" parent="1" source="O-2L4KxatOeJdAkyZx8x-58" target="O-2L4KxatOeJdAkyZx8x-61" edge="1">
          <mxGeometry relative="1" as="geometry">
            <Array as="points">
              <mxPoint x="750" y="-440" />
              <mxPoint x="860" y="-440" />
            </Array>
          </mxGeometry>
        </mxCell>
        <mxCell id="FmJ5r7O6Pe5S9-oqRUou-14" style="edgeStyle=orthogonalEdgeStyle;rounded=0;orthogonalLoop=1;jettySize=auto;html=1;entryX=-0.003;entryY=0.717;entryDx=0;entryDy=0;entryPerimeter=0;" parent="1" source="O-2L4KxatOeJdAkyZx8x-58" target="FmJ5r7O6Pe5S9-oqRUou-6" edge="1">
          <mxGeometry relative="1" as="geometry" />
        </mxCell>
        <mxCell id="FmJ5r7O6Pe5S9-oqRUou-18" style="edgeStyle=orthogonalEdgeStyle;rounded=0;orthogonalLoop=1;jettySize=auto;html=1;entryX=0.415;entryY=0.998;entryDx=0;entryDy=0;entryPerimeter=0;" parent="1" source="O-2L4KxatOeJdAkyZx8x-57" target="FmJ5r7O6Pe5S9-oqRUou-12" edge="1">
          <mxGeometry relative="1" as="geometry" />
        </mxCell>
        <mxCell id="FmJ5r7O6Pe5S9-oqRUou-23" style="edgeStyle=orthogonalEdgeStyle;rounded=0;orthogonalLoop=1;jettySize=auto;html=1;" parent="1" source="FmJ5r7O6Pe5S9-oqRUou-19" target="FmJ5r7O6Pe5S9-oqRUou-12" edge="1">
          <mxGeometry relative="1" as="geometry" />
        </mxCell>
        <mxCell id="FmJ5r7O6Pe5S9-oqRUou-19" value="DimBus" style="swimlane;fontStyle=0;childLayout=stackLayout;horizontal=1;startSize=26;horizontalStack=0;resizeParent=1;resizeParentMax=0;resizeLast=0;collapsible=1;marginBottom=0;align=center;fontSize=14;fillColor=#dae8fc;strokeColor=#6c8ebf;" parent="1" vertex="1">
          <mxGeometry x="1060" y="-1187" width="160" height="200" as="geometry" />
        </mxCell>
        <mxCell id="FmJ5r7O6Pe5S9-oqRUou-20" value="&lt;div&gt;bus_sk: pk&lt;/div&gt;&lt;div&gt;bus_id: int&lt;/div&gt;&lt;div&gt;model: string&lt;div&gt;license_plate: string&lt;/div&gt;&lt;div&gt;make: string&lt;/div&gt;&lt;div&gt;year_of_manufacture: int&lt;/div&gt;&lt;div&gt;capacity: int&lt;/div&gt;&lt;div&gt;fuel_type: string&lt;/div&gt;&lt;div&gt;current_mileage: float&lt;/div&gt;&lt;div&gt;status: string&lt;/div&gt;&lt;div&gt;gps_enabled: boolean&lt;/div&gt;&lt;/div&gt;" style="text;strokeColor=none;fillColor=none;spacingLeft=4;spacingRight=4;overflow=hidden;rotatable=0;points=[[0,0.5],[1,0.5]];portConstraint=eastwest;fontSize=12;whiteSpace=wrap;html=1;" parent="FmJ5r7O6Pe5S9-oqRUou-19" vertex="1">
          <mxGeometry y="26" width="160" height="174" as="geometry" />
        </mxCell>
        <mxCell id="FmJ5r7O6Pe5S9-oqRUou-24" style="edgeStyle=orthogonalEdgeStyle;rounded=0;orthogonalLoop=1;jettySize=auto;html=1;" parent="1" source="FmJ5r7O6Pe5S9-oqRUou-21" target="FmJ5r7O6Pe5S9-oqRUou-11" edge="1">
          <mxGeometry relative="1" as="geometry" />
        </mxCell>
        <mxCell id="FmJ5r7O6Pe5S9-oqRUou-21" value="DimDriver" style="swimlane;fontStyle=0;childLayout=stackLayout;horizontal=1;startSize=26;horizontalStack=0;resizeParent=1;resizeParentMax=0;resizeLast=0;collapsible=1;marginBottom=0;align=center;fontSize=14;fillColor=#dae8fc;strokeColor=#6c8ebf;" parent="1" vertex="1">
          <mxGeometry x="770" y="-1410" width="160" height="140" as="geometry" />
        </mxCell>
        <mxCell id="FmJ5r7O6Pe5S9-oqRUou-22" value="&lt;div&gt;driver_sk: pk&lt;/div&gt;&lt;div&gt;driver_id: int&lt;/div&gt;&lt;div&gt;name: string&lt;div&gt;last_name: string&lt;/div&gt;&lt;div&gt;address: string&lt;/div&gt;&lt;div&gt;dni: string&lt;/div&gt;&lt;div&gt;license_number: string&lt;/div&gt;&lt;/div&gt;" style="text;strokeColor=none;fillColor=none;spacingLeft=4;spacingRight=4;overflow=hidden;rotatable=0;points=[[0,0.5],[1,0.5]];portConstraint=eastwest;fontSize=12;whiteSpace=wrap;html=1;" parent="FmJ5r7O6Pe5S9-oqRUou-21" vertex="1">
          <mxGeometry y="26" width="160" height="114" as="geometry" />
        </mxCell>
        <mxCell id="FmJ5r7O6Pe5S9-oqRUou-25" value="FactMaintenanceDetail" style="swimlane;fontStyle=0;childLayout=stackLayout;horizontal=1;startSize=26;horizontalStack=0;resizeParent=1;resizeParentMax=0;resizeLast=0;collapsible=1;marginBottom=0;align=center;fontSize=14;fillColor=#dae8fc;strokeColor=#6c8ebf;" parent="1" vertex="1">
          <mxGeometry x="1444" y="-890" width="210" height="250" as="geometry" />
        </mxCell>
        <mxCell id="FmJ5r7O6Pe5S9-oqRUou-26" value="maintenance_sk: pk&lt;div&gt;maintenance_id: int&lt;/div&gt;&lt;div&gt;&lt;div&gt;maintenance_date_id: int&lt;/div&gt;&lt;div&gt;maintenance_type: string&lt;/div&gt;&lt;div&gt;cost: float&lt;/div&gt;&lt;div&gt;&lt;span style=&quot;background-color: initial;&quot;&gt;task_description: string&lt;/span&gt;&lt;br&gt;&lt;/div&gt;&lt;/div&gt;&lt;div&gt;&lt;div&gt;part_replaced: string&lt;/div&gt;&lt;div&gt;labor_hours: string&lt;/div&gt;&lt;div&gt;part_cost: float&lt;/div&gt;&lt;div&gt;task_cost: float&lt;/div&gt;&lt;/div&gt;&lt;div&gt;bus_id:int&lt;/div&gt;" style="text;strokeColor=none;fillColor=none;spacingLeft=4;spacingRight=4;overflow=hidden;rotatable=0;points=[[0,0.5],[1,0.5]];portConstraint=eastwest;fontSize=12;whiteSpace=wrap;html=1;" parent="FmJ5r7O6Pe5S9-oqRUou-25" vertex="1">
          <mxGeometry y="26" width="210" height="224" as="geometry" />
        </mxCell>
        <mxCell id="FmJ5r7O6Pe5S9-oqRUou-27" style="edgeStyle=orthogonalEdgeStyle;rounded=0;orthogonalLoop=1;jettySize=auto;html=1;entryX=0.5;entryY=0;entryDx=0;entryDy=0;" parent="1" source="FmJ5r7O6Pe5S9-oqRUou-20" target="FmJ5r7O6Pe5S9-oqRUou-25" edge="1">
          <mxGeometry relative="1" as="geometry" />
        </mxCell>
        <mxCell id="FmJ5r7O6Pe5S9-oqRUou-28" style="edgeStyle=orthogonalEdgeStyle;rounded=0;orthogonalLoop=1;jettySize=auto;html=1;entryX=1;entryY=0.369;entryDx=0;entryDy=0;entryPerimeter=0;" parent="1" source="O-2L4KxatOeJdAkyZx8x-52" target="O-2L4KxatOeJdAkyZx8x-62" edge="1">
          <mxGeometry relative="1" as="geometry" />
        </mxCell>
        <mxCell id="FmJ5r7O6Pe5S9-oqRUou-29" value="DimGuide" style="swimlane;fontStyle=0;childLayout=stackLayout;horizontal=1;startSize=26;horizontalStack=0;resizeParent=1;resizeParentMax=0;resizeLast=0;collapsible=1;marginBottom=0;align=center;fontSize=14;fillColor=#dae8fc;strokeColor=#6c8ebf;" parent="1" vertex="1">
          <mxGeometry x="390" y="-1170" width="160" height="140" as="geometry" />
        </mxCell>
        <mxCell id="FmJ5r7O6Pe5S9-oqRUou-30" value="&lt;div&gt;guide_sk: pk&lt;/div&gt;&lt;div&gt;guide_id: int&lt;/div&gt;&lt;div&gt;name: string&lt;div&gt;last_name: string&lt;/div&gt;&lt;div&gt;website: string&lt;/div&gt;&lt;div&gt;description: string&lt;/div&gt;&lt;div&gt;languages: string&lt;/div&gt;&lt;/div&gt;" style="text;strokeColor=none;fillColor=none;spacingLeft=4;spacingRight=4;overflow=hidden;rotatable=0;points=[[0,0.5],[1,0.5]];portConstraint=eastwest;fontSize=12;whiteSpace=wrap;html=1;" parent="FmJ5r7O6Pe5S9-oqRUou-29" vertex="1">
          <mxGeometry y="26" width="160" height="114" as="geometry" />
        </mxCell>
        <mxCell id="FmJ5r7O6Pe5S9-oqRUou-31" style="edgeStyle=orthogonalEdgeStyle;rounded=0;orthogonalLoop=1;jettySize=auto;html=1;" parent="1" source="FmJ5r7O6Pe5S9-oqRUou-30" target="FmJ5r7O6Pe5S9-oqRUou-12" edge="1">
          <mxGeometry relative="1" as="geometry" />
        </mxCell>
        <mxCell id="FmJ5r7O6Pe5S9-oqRUou-33" style="edgeStyle=orthogonalEdgeStyle;rounded=0;orthogonalLoop=1;jettySize=auto;html=1;" parent="1" source="O-2L4KxatOeJdAkyZx8x-4" target="O-2L4KxatOeJdAkyZx8x-62" edge="1">
          <mxGeometry relative="1" as="geometry" />
        </mxCell>
      </root>
    </mxGraphModel>
  </diagram>
</mxfile>
